<?xml version="1.0" encoding="UTF-8" standalone="no"?>
<!-- Created with Inkscape (http://www.inkscape.org/) -->
<svg xmlns:dc="http://purl.org/dc/elements/1.1/" xmlns:cc="http://creativecommons.org/ns#" xmlns:rdf="http://www.w3.org/1999/02/22-rdf-syntax-ns#" xmlns:svg="http://www.w3.org/2000/svg" xmlns="http://www.w3.org/2000/svg" xmlns:sodipodi="http://sodipodi.sourceforge.net/DTD/sodipodi-0.dtd" xmlns:inkscape="http://www.inkscape.org/namespaces/inkscape" width="166" height="168.06926" id="svg2" version="1.1" inkscape:version="0.48.5 r10040" sodipodi:docname="informatica-logo.svg">
  <title id="title4027">Logo Carrera de Informática</title>
  <defs id="defs4"/>
  <sodipodi:namedview id="base" pagecolor="#ffffff" bordercolor="#666666" borderopacity="1.0" inkscape:pageopacity="0.0" inkscape:pageshadow="2" inkscape:zoom="2.6176135" inkscape:cx="197.16997" inkscape:cy="47.442965" inkscape:document-units="px" inkscape:current-layer="layer1" showgrid="false" fit-margin-top="0" fit-margin-left="0" fit-margin-right="0" fit-margin-bottom="0" showguides="true" inkscape:guide-bbox="true" inkscape:snap-global="false" inkscape:window-width="1600" inkscape:window-height="859" inkscape:window-x="0" inkscape:window-y="19" inkscape:window-maximized="1"/>
  <metadata id="metadata7">
    <rdf:RDF>
      <cc:Work rdf:about="">
        <dc:format>image/svg+xml</dc:format>
        <dc:type rdf:resource="http://purl.org/dc/dcmitype/StillImage"/>
        <dc:title>Logo Carrera de Informática</dc:title>
        <dc:date>2016-01-12</dc:date>
        <dc:creator>
          <cc:Agent>
            <dc:title>Alejandro Salamanca</dc:title>
          </cc:Agent>
        </dc:creator>
        <dc:publisher>
          <cc:Agent>
            <dc:title>Devenet SRL</dc:title>
          </cc:Agent>
        </dc:publisher>
        <dc:identifier>informatica-logo</dc:identifier>
        <dc:source>http://informatica.edu.bo/sites/default/files/devoluciondedocumentos.pdf</dc:source>
        <cc:license rdf:resource="http://creativecommons.org/licenses/publicdomain/"/>
      </cc:Work>
      <cc:License rdf:about="http://creativecommons.org/licenses/publicdomain/">
        <cc:permits rdf:resource="http://creativecommons.org/ns#Reproduction"/>
        <cc:permits rdf:resource="http://creativecommons.org/ns#Distribution"/>
        <cc:permits rdf:resource="http://creativecommons.org/ns#DerivativeWorks"/>
      </cc:License>
    </rdf:RDF>
  </metadata>
  <g inkscape:label="Layer 1" inkscape:groupmode="layer" id="layer1" transform="translate(-64.332771,-434.85036)">
    <g style="font-size:30px;font-style:normal;font-variant:normal;font-weight:bold;font-stretch:normal;text-align:start;line-height:125%;letter-spacing:0px;word-spacing:0px;writing-mode:lr-tb;text-anchor:start;fill:#0e2272;fill-opacity:1;stroke:#000000;font-family:Sans;-inkscape-font-specification:Sans Bold" id="text3982"/>
    <g style="font-size:66px;font-style:normal;font-variant:normal;font-weight:bold;font-stretch:normal;text-align:start;line-height:125%;letter-spacing:0px;word-spacing:0px;writing-mode:lr-tb;text-anchor:start;fill:#0e2272;fill-opacity:1;stroke:#000000;font-family:Sans;-inkscape-font-specification:Sans Bold" id="text3949"/>
    <g style="font-size:33px;font-style:normal;font-variant:normal;font-weight:bold;font-stretch:normal;text-align:start;line-height:125%;letter-spacing:0px;word-spacing:0px;writing-mode:lr-tb;text-anchor:start;fill:#0e2272;fill-opacity:1;stroke:#000000;font-family:Sans;-inkscape-font-specification:Sans Bold" id="text3959"/>
    <g id="g3232" transform="matrix(0.31086142,0,0,0.31086142,44.334194,415.49517)">
      <path sodipodi:nodetypes="ssssscsccsccsccsssc" inkscape:connector-curvature="0" d="m 441.33277,331.90865 c 0,60.13943 -49.24868,108.89208 -110,108.89208 -60.75131,0 -109.99999,-48.75265 -109.99999,-108.89208 0,-60.13943 49.24868,-108.89208 109.99999,-108.89208 60.75132,0 110,48.75265 110,108.89208 z m 54.74569,2.36965 c -4.79247,84.72415 -76.71915,151.9848 -164.74569,151.9848 -88.07737,0 -160.03628,-67.33836 -164.75392,-152.1316 m -19.55832,105.89199 c -19.48169,-32.34917 -30.68776,-70.24612 -30.68776,-110.7604 0,-53.29152 19.38892,-102.05451 51.49734,-139.61958 m 328.42328,1.6761 c 31.26042,37.3341 50.07938,85.44109 50.07938,137.94348 0,40.39453 -11.13993,78.1872 -30.51523,110.47343 M 193.49414,555.63846 C 117.23884,509.10765 66.332771,425.13025 66.332771,329.26309 c 0,-146.35546 118.644539,-264.999998 264.999999,-264.999998 146.35546,0 265,118.644538 265,264.999998 0,96.31599 -51.38385,180.63064 -128.23408,227.02646" style="fill:none;stroke:#aa0000;stroke-width:3.99999976;stroke-linecap:round;stroke-linejoin:miter;stroke-miterlimit:4;stroke-opacity:1;stroke-dashoffset:0" id="path3872"/>
      <g style="stroke:none" transform="matrix(0.89646215,0,0,0.89646215,661.53844,93.026328)" id="g3896">
        <path inkscape:connector-curvature="0" id="path3891" d="m -468.50127,316.01312 c -0.0279,-8.58461 -9.46439,-13.11793 -11.0807,-21.9552 -0.7921,-7.16969 12.14292,-11.84865 12.40174,-20.55212 9.27452,-4.85024 -9.32783,-3.1662 -7.22403,-11.14462 -0.81539,-3.38961 -4.12164,-6.99631 -0.99783,-10.07737 0.92122,-2.74694 5.30322,-5.90724 1.49338,-8.0891 -6.14212,-7.36825 4.30203,-13.89279 6.66693,-20.75811 3.34152,-7.33253 15.82014,-2.40813 23.02336,-4.02562 53.99134,-0.26929 107.98387,-0.10082 161.97576,-0.14786 -2.02954,8.00239 5.47496,15.23509 2.89472,23.30277 -7.84232,0.32348 -4.75522,2.82802 -0.8682,7.18278 2.85113,5.82301 1.97167,12.63282 2.81987,18.93735 12.94982,2.93656 26.70687,0.75443 39.49384,3.94847 -5.21247,8.97376 -4.02859,23.63739 8.12857,25.96771 5.64133,3.27203 3.51112,12.42684 8.28774,16.83159 -1.2906,4.7547 -5.74304,3.89875 -9.52313,3.82933 -78.90937,0 -157.81874,0 -236.72811,0 -0.25464,-1.08333 -0.50927,-2.16667 -0.76391,-3.25 z" style="fill:#f5e013;stroke:none"/>
        <path inkscape:connector-curvature="0" id="path3889" d="m -467.90243,218.01312 c -3.83409,-7.16027 0.66204,-14.82435 -0.69693,-22.77406 3.30749,-5.72091 7.6493,-11.94574 1.93672,-18.44783 -4.96734,-8.94647 -10.76441,-17.39253 -16.24169,-26.02811 5.76241,-0.7327 12.23976,-0.79403 17.45389,1.58764 4.16539,4.39239 13.14748,-3.81972 16.00298,-8.46101 8.78314,0.0952 13.78063,-8.01004 21.68221,-10.79676 6.32945,-6.72068 14.92982,-9.3397 23.85402,-10.21647 4.55831,-0.37448 9.66382,0.26127 13.23821,-1.89926 4.63523,6.95388 -1.2846,14.70852 -0.19723,21.54696 3.20893,7.3393 -2.00626,15.87919 4.82442,22.07823 2.3432,5.06421 7.32852,9.07034 12.67277,12.10463 3.65866,5.77551 11.10571,9.63924 18.79045,6.70691 5.58623,0.95988 9.24094,5.94399 15.1101,5.04583 3.91601,6.86591 12.48353,8.83296 19.70236,10.15273 3.31047,7.6031 12.05625,10.17552 19.87388,8.52911 6.57506,0.99161 14.35618,4.17642 17.91313,9.92033 3.03258,3.53473 -2.57688,1.80927 -4.70783,2.2011 -57.63347,-0.13737 -115.27299,0.37142 -172.90137,-0.46828 -2.74222,-0.23285 -5.67239,0.0927 -8.31009,-0.78169 z" style="fill:#d61d04;stroke:none"/>
        <path inkscape:connector-curvature="0" id="path3887" d="m -440.35926,417.01312 c -0.91572,-9.00465 -3.45772,-17.35651 -6.70213,-25.67721 1.52292,-10.31349 -10.13721,-15.2786 -9.07075,-24.55243 -5.93797,-1.52903 -3.28532,-7.71582 -3.99013,-11.45326 8.66881,-1.10905 -2.42676,-8.70957 4.16943,-12.95955 3.70751,-4.85187 -7.30767,-6.03446 -8.3917,-10.59889 -0.92624,-2.71074 -4.759,-11.65453 -1.2072,-12.50866 80.51591,0 161.03181,0 241.54772,0 -2.88961,6.84245 -3.01524,14.45104 -7.2224,20.77594 -1.52572,2.95408 -3.05144,5.90815 -4.57716,8.86223 0.97372,2.10977 6.95064,4.54538 4.16195,6.4101 -7.30373,7.96639 -3.87067,-6.96134 -10.81292,-7.9911 -4.51159,-2.86175 -8.77747,-6.61923 -13.46675,-8.96897 -11.23231,-0.15106 -22.57937,-0.29345 -33.45751,2.95475 -7.76585,2.2444 -17.13642,0.84237 -23.76344,5.62625 -2.36585,9.07858 -11.29124,15.41325 -10.83777,25.30516 -1.13698,10.84663 -4.95144,21.13083 -8.13124,31.4938 -2.26311,-2.03195 -3.35681,-6.57764 -7.06622,-5.5006 -6.61852,0.17747 -13.23705,0.35495 -19.85557,0.53243 -3.03234,6.13344 -6.76396,12.09623 -8.00574,18.91591 -3.65301,-5.71933 -3.20605,-15.51725 -11.39059,-16.49891 -9.1119,-1.74634 -19.60916,1.16915 -26.38584,-6.95644 -4.10159,-0.94497 -2.88406,9.56199 -9.6568,8.34964 -6.17625,4.38584 -9.60281,15.72605 -19.29713,15.6521 -2.06323,-0.13125 -4.98075,0.40307 -6.59011,-1.21229 z" style="fill:#00783b;stroke:none"/>
      </g>
      <path transform="translate(66.332771,64.263092)" inkscape:connector-curvature="0" id="path4006" d="m 97.975656,361.7717 34.968804,-8.50592 23.62757,-98.60573 49.46038,-26.77791 45.995,43.78976 2.83531,99.55083 -128.53398,6.30069 z" style="fill:#ffffff;stroke:#000000;stroke-width:1px;stroke-linecap:butt;stroke-linejoin:miter;stroke-opacity:1"/>
      <g style="fill:none;stroke:#000000;stroke-width:3;stroke-linejoin:round;stroke-miterlimit:4;stroke-dasharray:none" transform="translate(-2.485657,1.04268)" id="g3836">
        <path sodipodi:nodetypes="csssssccc" style="fill:none;stroke:#000000;stroke-width:3;stroke-linecap:butt;stroke-linejoin:round;stroke-miterlimit:4;stroke-opacity:1;stroke-dasharray:none" d="m 128.40274,376.41444 126.63935,-4.40772 c 2.31904,-0.0807 2.21366,-0.003 2.08711,-2.18583 l -5.89292,-101.65285 c -0.16723,-2.88476 -0.62863,-3.58548 -2.60718,-5.44155 l -35.3472,-33.15903 c -1.68274,-1.57857 -2.04935,-1.81455 -4.39562,-2.43557 -6.26998,41.63009 -12.55953,83.27099 -18.83529,124.90021 z" id="path3828" inkscape:connector-curvature="0" transform="translate(66.332771,64.263092)"/>
        <path sodipodi:nodetypes="ccccc" style="fill:#000000;stroke:#000000;stroke-width:3;stroke-linecap:butt;stroke-linejoin:round;stroke-miterlimit:4;stroke-opacity:1;stroke-dasharray:none" d="M 128.40274,376.41444 100,360.30702 l 34.7562,-8.35343 55.27516,0 z" id="path3830" inkscape:connector-curvature="0" transform="translate(66.332771,64.263092)"/>
        <path sodipodi:nodetypes="csssccc" style="fill:none;stroke:#000000;stroke-width:3;stroke-linecap:butt;stroke-linejoin:round;stroke-miterlimit:4;stroke-opacity:1;stroke-dasharray:none" d="m 134.7562,351.95359 23.09916,-95.26947 c 0.62621,-2.58274 2.12105,-4.69242 4.38834,-5.91616 l 40.80594,-22.02437 c 1.39715,-0.75409 3.57012,-2.04639 5.83664,-1.6117 -6.34821,41.59736 -12.58002,83.21306 -18.85492,124.8217 z" id="path3832" inkscape:connector-curvature="0" transform="translate(66.332771,64.263092)"/>
        <path sodipodi:nodetypes="cccccsscc" style="fill:none;stroke:#000000;stroke-width:3;stroke-linecap:butt;stroke-linejoin:round;stroke-miterlimit:4;stroke-opacity:1;stroke-dasharray:none" d="m 146.19769,345.10408 32.08889,0 c 1.86472,-0.0116 3.358,-1.33895 3.65126,-3.04335 L 199.30403,240.6569 c 0.36118,-2.08712 -2.31556,-2.0581 -3.3465,-1.43631 l -26.63811,14.2483 c -1.53737,0.82231 -3.01964,2.56561 -3.46258,4.23549 l -22.44326,84.61128 c -0.44255,1.52422 1.16813,2.81618 2.78411,2.78842 z" id="path3834" inkscape:connector-curvature="0" transform="translate(66.332771,64.263092)"/>
      </g>
      <path sodipodi:nodetypes="cccccsssc" transform="translate(66.332771,64.263092)" inkscape:connector-curvature="0" id="path4004" d="m 231.51537,232.20885 c 47.68895,-42.36518 95.36908,-10.71188 107.36076,5.39803 23.93761,37.37809 22.97225,51.45985 22.79167,66.27577 l 0,20.39255 -8.69682,4.49836 c -2.85853,1.36363 -6.02908,-8.53264 -19.39015,-18.53144 -8.2196,-6.15117 -22.22565,12.89635 -34.48189,4.23226 -9.30275,-6.57624 -11.69002,-31.38681 -28.77647,-33.25668 -41.98498,-4.59468 -34.49686,-32.42956 -38.8071,-49.00885 z" style="fill:#ffffff;stroke:#000000;stroke-width:1px;stroke-linecap:butt;stroke-linejoin:miter;stroke-opacity:1"/>
      <path inkscape:connector-curvature="0" id="path3925" d="m 338.09923,414.02051 c -11.75046,-2.31953 -23.76214,-1.80388 -35.63355,-1.16542 -9.63092,-0.1556 -16.44003,-8.39204 -22.01207,-15.25708 -5.34118,-5.72129 -3.947,-13.79707 -6.89191,-20.52783 -3.87145,-7.9714 -7.01438,-16.50254 -6.58377,-25.53315 -0.3009,-11.8639 4.1584,-22.97998 8.75529,-33.66588 0.88853,-7.07256 4.09665,-12.81149 9.65358,-17.56941 20.20039,-23.43116 54.01541,-33.84405 83.84439,-25.50989 17.71385,4.07225 31.33961,17.05615 42.53414,30.65415 6.91148,5.92236 6.01156,15.63744 11.82179,22.06794 6.81622,8.74199 6.58683,20.51637 8.1972,31.01444 1.15946,10.64912 3.24157,22.56203 -3.61302,31.86193 -3.87498,6.64993 -9.53806,12.29187 -17.43077,13.31095 -13.24018,5.07694 -25.93781,12.60196 -40.49472,13.07412 -10.77997,0.79072 -21.5863,-0.68646 -32.14658,-2.75487 z m 86.94737,-30.7149 c 3.04187,-10.79498 -16.50187,-3.20105 -10.67431,2.12607 4.2236,3.46702 11.58286,6.80341 10.67431,-2.12607 z m -40.48953,-13.00658 c 5.90788,-5.25537 8.20106,-13.47976 4.05786,-20.58924 -2.94807,-6.7246 -8.2893,-15.24805 -16.65668,-14.22182 -9.91632,4.96373 -18.19565,17.27634 -13.64678,28.50467 2.97731,6.36936 9.16908,13.21799 16.77596,12.63252 3.85869,-0.74897 6.85017,-3.5755 9.46964,-6.32613 z m 35.05532,1.63424 c -3.85692,-2.49093 -13.50546,1.90406 -3.88158,1.56623 0.73309,-0.0322 6.99045,0.0256 3.88158,-1.56623 z m 0.50057,-32.40594 c -1.46108,-3.50935 -12.77674,-9.16787 -6.9548,-1.88251 4.64087,2.91028 8.69039,17.919 -0.64362,14.95121 -5.10166,-0.23921 -13.99341,0.75752 -11.40349,-7.02857 -5.7185,-11.75188 -15.73454,-20.7517 -24.88428,-29.84467 -8.7286,-8.67985 -20.76606,-14.75371 -33.32151,-13.59523 -6.83671,2.51222 -11.20194,9.34006 -16.86282,13.81297 -5.25678,5.60424 -10.52034,14.777 -5.60162,22.12341 3.77066,4.53797 12.934,6.85354 12.00807,-1.80204 2.23506,-7.87064 9.12445,-14.09266 16.5755,-17.00689 7.19246,-0.20094 12.88747,5.58265 19.64818,7.40936 8.05076,2.85338 18.05088,3.36677 23.01864,11.46465 4.17403,5.52622 5.57047,13.51545 11.76418,17.22922 3.64521,3.14425 4.14639,10.72917 11.4991,9.88585 10.15571,3.10727 10.36534,-9.76251 9.31211,-16.4884 -0.55744,-3.35773 -1.84891,-6.67733 -4.15364,-9.22836 z m -62.96325,-3.58347 c 4.82988,-6.76328 -4.72743,-15.05171 -11.01206,-10.25194 -5.08044,3.62196 -12.12612,15.8212 -3.77542,18.98197 5.86746,0.007 11.78829,-3.77945 14.78748,-8.73003 z m -25.98205,-34.15141 c 15.68286,-9.44834 36.64047,-4.78237 49.15699,7.82433 6.6967,6.09689 11.11676,16.78772 21.41756,17.12277 9.69402,2.03613 12.29557,-8.90656 6.31829,-14.88694 -9.61903,-14.16744 -22.72603,-27.66351 -40.24464,-30.93655 -19.98477,-5.0255 -42.20429,-1.62308 -59.34611,9.94103 -8.16612,5.39385 -6.5408,16.6848 -4.50942,24.84128 1.1162,4.69446 5.83536,18.83546 9.94457,8.55129 3.76609,-8.75701 9.05523,-17.24074 17.26276,-22.45721 z" style="fill:#000000;stroke:#000000"/>
      <g id="text3995" style="font-size:22.60000038px;font-style:normal;font-variant:normal;font-weight:bold;font-stretch:normal;text-align:start;line-height:125%;letter-spacing:0px;word-spacing:0px;writing-mode:lr-tb;text-anchor:start;fill:#0e2272;fill-opacity:1;stroke:none;font-family:Sans;-inkscape-font-specification:Sans Bold">
        <path d="m 493.27732,323.78219 -3.47944,0.23109 c 0.34375,-0.92972 0.58988,-1.83083 0.73839,-2.70332 0.14848,-0.87251 0.19738,-1.69047 0.14669,-2.45388 -0.0673,-1.01301 -0.2565,-1.75249 -0.5676,-2.21843 -0.31114,-0.46596 -0.76032,-0.67944 -1.34756,-0.64043 -0.44044,0.0292 -0.77473,0.21366 -1.00284,0.55322 -0.22031,0.34641 -0.39003,0.9549 -0.50915,1.82545 l -0.24343,1.82992 c -0.24564,1.85218 -0.71723,3.18852 -1.41477,4.00902 -0.69756,0.82048 -1.73635,1.27655 -3.11637,1.36822 -1.81314,0.12041 -3.19964,-0.32941 -4.15952,-1.34948 -0.95205,-1.01323 -1.50145,-2.6246 -1.6482,-4.83411 -0.0692,-1.04237 -0.0396,-2.09499 0.0889,-3.15785 0.12848,-1.06288 0.35239,-2.13208 0.67172,-3.20762 l 3.57854,-0.23768 c -0.48817,1.08676 -0.84297,2.12779 -1.06441,3.12311 -0.21362,1.00216 -0.29019,1.95836 -0.22974,2.8686 0.0614,0.92491 0.26263,1.62304 0.6036,2.09439 0.34097,0.47133 0.79774,0.68799 1.37031,0.64997 0.51384,-0.0341 0.89901,-0.2293 1.15554,-0.58548 0.25699,-0.34886 0.46245,-1.02976 0.61637,-2.0427 l 0.2544,-1.66476 c 0.24313,-1.6677 0.72473,-2.90885 1.44479,-3.72346 0.72054,-0.80728 1.73413,-1.2543 3.04076,-1.34109 1.63694,-0.10872 2.93096,0.33619 3.88205,1.33474 0.95106,0.99853 1.49242,2.48878 1.62407,4.47075 0.0599,0.90289 0.0519,1.8361 -0.0242,2.79965 -0.0688,0.96305 -0.20506,1.96376 -0.40888,3.00216 m -2.94207,-28.50169 1.99374,11.29085 -3.16231,0.5584 -1.25496,-7.10704 -3.02104,0.53345 1.18013,6.68323 -3.16231,0.5584 -1.18012,-6.68323 -3.71653,0.65627 1.29718,7.34612 -3.16231,0.5584 -2.03596,-11.52993 16.22449,-2.86492 m -4.14398,-15.54366 1.16427,4.08589 -12.75648,3.63494 2.04427,7.17419 -3.08829,0.88001 -3.20855,-11.26009 15.84478,-4.51494 m -15.60312,-3.6636 -2.5106,-6.15049 -3.17515,0.16376 -1.61395,-3.95389 17.55987,-0.57657 1.91423,4.68949 -12.94738,11.87632 -1.61396,-3.95389 2.38694,-2.09473 m 0.71981,-6.32489 1.7057,4.17865 5.21799,-4.56145 -6.92369,0.3828 m -4.56959,-16.30262 c 0.4326,0.77798 0.88653,1.25369 1.36178,1.42714 0.47881,0.17987 1.04934,0.0857 1.7116,-0.28257 0.6558,-0.36468 1.03042,-0.79606 1.12384,-1.29414 0.097,-0.49165 -0.0708,-1.12646 -0.50344,-1.90444 l -0.8688,-1.56238 -3.69378,2.05401 0.8688,1.56238 m -3.4342,-0.13584 -5.44905,3.03007 -2.06474,-3.71307 14.39901,-8.00689 3.15342,5.67088 c 1.05469,1.89672 1.50869,3.46248 1.362,4.69729 -0.14315,1.24122 -0.90268,2.2444 -2.27859,3.00952 -0.95159,0.52914 -1.8615,0.73207 -2.72971,0.6088 -0.86467,-0.11685 -1.69908,-0.55776 -2.50324,-1.32272 0.1667,0.57229 0.15515,1.17216 -0.0347,1.79962 -0.17983,0.6303 -0.57004,1.3818 -1.17062,2.25452 l -2.96835,4.28956 -2.19881,-3.95418 2.602,-3.74493 c 0.52346,-0.75407 0.8151,-1.38763 0.87493,-1.9007 0.0634,-0.50665 -0.073,-1.06216 -0.40903,-1.66653 l -0.58456,-1.05124 m -4.78986,-25.39708 2.50247,3.43332 -7.98136,5.81743 c -1.09986,0.80165 -1.75759,1.55417 -1.9732,2.25754 -0.20534,0.70498 -0.0112,1.46471 0.58248,2.2792 0.59799,0.82043 1.26181,1.23783 1.99149,1.25222 0.73993,0.016 1.65982,-0.37685 2.75969,-1.1785 l 7.98136,-5.81743 2.50247,3.43333 -7.98136,5.81742 c -1.88463,1.37364 -3.63218,1.92366 -5.24265,1.65005 -1.6105,-0.27363 -3.12207,-1.3795 -4.53471,-3.31761 -1.40832,-1.93218 -1.99623,-3.70673 -1.76372,-5.32366 0.23251,-1.61694 1.29106,-3.11223 3.17568,-4.48588 l 7.98136,-5.81743 m -12.87144,-14.34497 10.29395,11.16242 -2.36065,2.17699 -3.70314,-4.01555 -9.75089,8.99225 -2.88021,-3.1232 9.75089,-8.99226 -3.71061,-4.02366 2.36066,-2.17699 m -12.95004,6.41431 -4.99477,-4.37995 -2.76719,1.56558 -3.21092,-2.81568 15.45078,-8.36391 3.8083,3.33953 -6.27435,16.41079 -3.21092,-2.81568 1.19907,-2.94068 m -2.1829,-5.97974 3.39345,2.97574 2.62917,-6.41262 -6.02262,3.43688 m -13.40407,-22.93782 3.91171,2.68602 -1.45679,12.70719 6.39646,-9.31532 3.32041,2.27999 -9.32609,13.58181 -3.91171,-2.68601 1.45679,-12.7072 -6.39646,9.31533 -3.32041,-2.27999 9.32609,-13.58182 m -26.25118,-13.24699 4.22924,1.92276 0.98584,6.89713 5.84524,-3.7915 4.23929,1.92732 -9.66199,6.0808 -2.87271,6.31875 -3.8676,-1.75834 2.87271,-6.31874 -1.77002,-11.27818 m -12.60017,-3.6891 -0.89593,3.37005 c -0.77056,-0.62352 -1.5453,-1.14539 -2.32421,-1.56562 -0.77893,-0.42022 -1.5381,-0.72861 -2.27751,-0.9252 -0.98117,-0.26083 -1.74228,-0.31854 -2.28334,-0.17313 -0.54108,0.14544 -0.88723,0.50254 -1.03843,1.07132 -0.11342,0.42659 -0.0458,0.80234 0.20274,1.12723 0.25755,0.31969 0.77958,0.67542 1.56607,1.06719 l 1.65545,0.81692 c 1.67583,0.82614 2.79061,1.70104 3.34436,2.6247 0.55372,0.92367 0.65291,2.05383 0.29758,3.39047 -0.46688,1.75612 -1.33724,2.9254 -2.61108,3.50784 -1.26486,0.57721 -2.96731,0.58135 -5.10735,0.0124 -1.0096,-0.26841 -1.99723,-0.63373 -2.96289,-1.09599 -0.96568,-0.46226 -1.90677,-1.01694 -2.8233,-1.66405 l 0.92145,-3.46603 c 0.87305,0.81064 1.74552,1.48029 2.61741,2.00896 0.88089,0.52345 1.76214,0.90237 2.64376,1.13675 0.89583,0.23816 1.62162,0.27125 2.17737,0.0993 0.55573,-0.17197 0.90732,-0.53524 1.05476,-1.08981 0.1323,-0.49768 0.0709,-0.92509 -0.18437,-1.28221 -0.24812,-0.35522 -0.8273,-0.76802 -1.73752,-1.23837 l -1.49548,-0.77439 c -1.50187,-0.76466 -2.52329,-1.61854 -3.06423,-2.56165 -0.53385,-0.94121 -0.63255,-2.04459 -0.2961,-3.31015 0.4215,-1.58547 1.25756,-2.66871 2.5082,-3.24972 1.25062,-0.58098 2.83576,-0.61631 4.75542,-0.10599 0.87449,0.23251 1.75593,0.53915 2.6443,0.91995 0.89024,0.37371 1.79453,0.82345 2.71287,1.34923 m -22.11917,8.16153 -6.57475,-0.951 -1.46723,2.82057 -4.22662,-0.61136 8.39815,-15.4322 5.01297,0.72511 3.68102,17.17939 -4.22662,-0.61136 -0.59692,-3.11915 m -5.08869,-3.8246 4.46689,0.64611 -1.28962,-6.80963 -3.17727,6.16352 m -16.35826,-4.32749 c 0.88988,0.0223 1.53019,-0.12726 1.92091,-0.44864 0.39807,-0.32118 0.60659,-0.86053 0.62557,-1.61805 0.0188,-0.75015 -0.16268,-1.2919 -0.54435,-1.62527 -0.37434,-0.33316 -1.00645,-0.51089 -1.89633,-0.53318 l -1.78714,-0.0447 -0.1058,4.22514 1.78714,0.0447 m -1.86061,2.88968 -0.15607,6.23291 -4.24721,-0.10635 0.41241,-16.47033 6.48664,0.16243 c 2.16956,0.0543 3.74901,0.45816 4.73835,1.21147 0.99667,0.75352 1.47531,1.9172 1.43592,3.49104 -0.0273,1.08847 -0.31441,1.97541 -0.86141,2.66081 -0.53968,0.68561 -1.34317,1.18063 -2.41049,1.48505 0.57768,0.14694 1.08862,0.46145 1.53282,0.94355 0.45172,0.47494 0.90105,1.19266 1.34799,2.15317 l 2.1885,4.73517 -4.52299,-0.11326 -1.90529,-4.14303 c -0.38388,-0.83382 -0.78164,-1.40675 -1.19329,-1.71879 -0.40431,-0.31184 -0.95212,-0.47642 -1.64343,-0.49373 l -1.20245,-0.0301 m -24.2915,-8.79654 4.229,-0.40696 0.94605,9.83105 c 0.13036,1.35475 0.44342,2.3039 0.93918,2.84745 0.50236,0.53553 1.25517,0.75502 2.25842,0.65848 1.01055,-0.0973 1.70769,-0.45627 2.09141,-1.07707 0.39031,-0.62881 0.52029,-1.62059 0.38993,-2.97535 l -0.94605,-9.83105 4.229,-0.40695 0.94605,9.83105 c 0.22337,2.32137 -0.1925,4.10561 -1.2476,5.35271 -1.05513,1.2471 -2.77633,1.98552 -5.1636,2.21524 -2.37996,0.22903 -4.20673,-0.16796 -5.4803,-1.19097 -1.27358,-1.02301 -2.02206,-2.6952 -2.24544,-5.01658 l -0.94605,-9.83105 m -18.16795,3.6568 6.88812,-1.50898 c 2.0481,-0.44866 3.71829,-0.33631 5.01056,0.33704 1.29786,0.66463 2.13099,1.83774 2.49939,3.51933 0.36995,1.6888 0.10515,3.10996 -0.79441,4.26349 -0.89398,1.14478 -2.36501,1.94151 -4.41311,2.39018 l -2.738,0.59981 1.22324,5.58379 -4.15012,0.90917 -3.52567,-16.09383 m 4.80897,2.09832 0.98473,4.49506 2.29604,-0.50299 c 0.80486,-0.17631 1.38398,-0.50652 1.73734,-0.99063 0.35177,-0.49127 0.44894,-1.09623 0.29152,-1.81487 -0.15744,-0.71862 -0.49784,-1.22396 -1.02121,-1.516 -0.52339,-0.29201 -1.18752,-0.34987 -1.99238,-0.17356 l -2.29604,0.50299 m -19.35608,3.00342 1.30367,3.23424 c -0.99054,-0.037 -1.92348,0.01 -2.79881,0.14064 -0.87534,0.13075 -1.66782,0.33914 -2.37744,0.62517 -0.94162,0.37956 -1.58534,0.78974 -1.93116,1.23054 -0.34583,0.44082 -0.40872,0.93416 -0.18869,1.48001 0.16502,0.40941 0.4444,0.6696 0.83814,0.78056 0.39781,0.10142 1.02888,0.0731 1.89322,-0.085 l 1.81468,-0.33883 c 1.83651,-0.34367 3.25326,-0.31191 4.25026,0.0953 0.99697,0.40721 1.754,1.25219 2.27108,2.53496 0.67933,1.68537 0.68388,3.14301 0.0137,4.37292 -0.66617,1.22036 -2.02616,2.24446 -4.07997,3.07232 -0.96891,0.39056 -1.97836,0.69037 -3.02835,0.89944 -1.05,0.20908 -2.13574,0.32945 -3.25724,0.36111 l -1.34081,-3.32636 c 1.18476,0.12527 2.28452,0.13806 3.29929,0.0384 1.01883,-0.10926 1.95129,-0.33442 2.79739,-0.67547 0.85973,-0.34654 1.46042,-0.75524 1.80207,-1.2261 0.34164,-0.47084 0.4052,-0.97238 0.19068,-1.50461 -0.19253,-0.47762 -0.49799,-0.78282 -0.91637,-0.9156 -0.41157,-0.13551 -1.12259,-0.11859 -2.13306,0.0507 l -1.66116,0.27696 c -1.66044,0.28857 -2.98986,0.21765 -3.98828,-0.21277 -0.99158,-0.43315 -1.73216,-1.257 -2.22173,-2.47156 -0.61333,-1.52159 -0.59374,-2.88981 0.0588,-4.10467 0.65251,-1.21484 1.89992,-2.19356 3.74221,-2.93618 0.83926,-0.33828 1.72854,-0.62138 2.66783,-0.8493 0.93653,-0.23471 1.9299,-0.41699 2.98011,-0.54685 m -12.80856,19.7938 -5.83204,3.18103 0.51693,3.13706 -3.74917,2.04495 -2.53182,-17.38596 4.44669,-2.4254 13.2465,11.54174 -3.74917,2.04495 -2.34792,-2.13837 m -6.36571,-0.01 3.9623,-2.1612 -5.11506,-4.67658 1.15276,6.83778 m -17.12737,-1.5784 3.53473,-2.35706 9.1405,13.70741 -3.53473,2.35706 -9.1405,-13.70741 m 5.60272,14.92372 c -0.35715,0.80269 -0.80211,1.54839 -1.33488,2.2371 -0.5328,0.68873 -1.15857,1.31989 -1.87734,1.89349 -2.14482,1.71164 -4.32124,2.46962 -6.52926,2.27394 -2.2126,-0.20141 -4.13801,-1.32853 -5.77623,-3.38136 -1.6428,-2.05855 -2.31467,-4.18604 -2.01561,-6.38246 0.29448,-2.20214 1.51413,-4.15903 3.65894,-5.87068 0.71878,-0.57359 1.47304,-1.04374 2.2628,-1.41048 0.78976,-0.36668 1.61559,-0.63512 2.4775,-0.8053 l 2.12692,2.66522 c -0.95025,0.0713 -1.8024,0.24774 -2.55644,0.52946 -0.75404,0.28175 -1.46169,0.68647 -2.12297,1.21417 -1.18453,0.94532 -1.8132,2.06822 -1.886,3.36871 -0.0728,1.30052 0.42311,2.6178 1.48772,3.95183 1.06002,1.3283 2.23216,2.10122 3.51641,2.31875 1.28424,0.21755 2.51863,-0.14633 3.70318,-1.09163 0.66126,-0.52771 1.2129,-1.12794 1.6549,-1.8007 0.442,-0.67273 0.80314,-1.46449 1.08343,-2.37527 l 2.12693,2.66521 m -34.90217,10.60232 3.32444,-3.38588 12.26121,3.64117 -8.06313,-7.91683 2.82192,-2.87406 11.75609,11.54279 -3.32444,3.38588 -12.26121,-3.64116 8.06312,7.91682 -2.82191,2.87406 -11.75609,-11.54279 m -10.84907,13.58798 7.02168,-9.0639 2.53859,1.96661 -4.41981,5.70529 2.42518,1.87875 4.15625,-5.36506 2.53859,1.96662 -4.15625,5.36506 2.9835,2.31127 4.56849,-5.8972 2.53859,1.96661 -7.17037,9.25582 -13.02444,-10.08987 m -5.40715,8.14777 2.31966,-3.55939 13.80303,8.99546 -2.31966,3.55939 -13.80303,-8.99546 m 11.02982,11.50742 c -0.0116,0.87848 -0.1263,1.73923 -0.34421,2.58225 -0.21792,0.84305 -0.544,1.66987 -0.97822,2.48048 -1.29576,2.41889 -2.99671,3.9739 -5.10288,4.66505 -2.11265,0.68768 -4.32654,0.41144 -6.64166,-0.82874 -2.3216,-1.24363 -3.77818,-2.93359 -4.36976,-5.06988 -0.59804,-2.13974 -0.24919,-4.41905 1.04655,-6.83795 0.43425,-0.8106 0.9419,-1.54015 1.52296,-2.18867 0.58108,-0.64848 1.23407,-1.2209 1.95896,-1.71726 l 3.00577,1.61013 c -0.8451,0.44032 -1.55854,0.93863 -2.14031,1.49493 -0.58176,0.55634 -1.0724,1.20738 -1.4719,1.95313 -0.7156,1.33591 -0.85036,2.61575 -0.40428,3.83951 0.44611,1.22378 1.42141,2.23863 2.9259,3.04456 1.49803,0.80247 2.88,1.05036 4.14592,0.74368 1.26593,-0.30666 2.2567,-1.12795 2.97232,-2.46385 0.39949,-0.74576 0.66963,-1.51491 0.81043,-2.30747 0.14079,-0.79253 0.16034,-1.66254 0.0586,-2.61004 l 3.00577,1.61014 m -15.4921,25.51961 1.36565,-3.73055 4.01034,1.46806 -1.36564,3.73055 -4.01035,-1.46806 m 1.79605,4.759 c 0.18717,0.85839 0.26983,1.72281 0.24798,2.59327 -0.0219,0.87048 -0.15273,1.74959 -0.39263,2.63733 -0.71586,2.64906 -2.0216,4.54811 -3.91721,5.69715 -1.9027,1.14713 -4.12177,1.37811 -6.65719,0.69295 -2.54252,-0.68707 -4.34319,-2.00432 -5.40204,-3.95177 -1.06592,-1.94934 -1.24096,-4.24854 -0.5251,-6.89761 0.23991,-0.88774 0.56964,-1.71311 0.9892,-2.47612 0.41957,-0.76298 0.92638,-1.4681 1.52041,-2.11538 l 3.29179,0.88955 c -0.72379,0.61983 -1.30623,1.26642 -1.7473,1.93976 -0.44106,0.67337 -0.77195,1.41842 -0.99267,2.23513 -0.39534,1.46303 -0.23752,2.74023 0.47347,3.83159 0.71101,1.09138 1.89034,1.8597 3.538,2.30495 1.64058,0.44334 3.04282,0.37266 4.20675,-0.21205 1.16394,-0.5847 1.94358,-1.60856 2.33894,-3.07158 0.22071,-0.81672 0.31013,-1.62702 0.26826,-2.4309 -0.0419,-0.80385 -0.21936,-1.65579 -0.53245,-2.55582 l 3.29179,0.88955 m -6.86341,19.77673 -0.97075,6.57185 2.81615,1.4757 -0.62405,4.22476 -15.4069,-8.44446 0.74016,-5.01076 17.19037,-3.62941 -0.62405,4.22476 -3.12093,0.58756 m -3.83987,5.07718 0.65953,-4.46494 -6.81348,1.26916 6.15395,3.19578 m -11.76065,17.37631 0.49637,-11.45478 3.20822,0.13903 -0.31244,7.21022 3.0649,0.13281 0.29381,-6.78025 3.20822,0.13902 -0.29381,6.78026 6.9787,0.30241 -0.18393,4.24455 -16.46004,-0.71327 m 339.79855,133.97029 -5.9455,7.66451 2.52479,3.89585 -3.82212,4.92719 -13.54692,-21.78591 4.5332,-5.84387 24.47007,7.7046 -3.82211,4.92718 -4.39141,-1.48955 m -8.52408,3.70653 4.03939,-5.20728 -9.57741,-3.26922 5.53802,8.4765 m -1.29036,13.51128 c -0.36828,1.22884 -0.87433,2.39144 -1.51814,3.48781 -0.64383,1.0964 -1.43303,2.12668 -2.36758,3.09084 -2.78874,2.87711 -5.80023,4.37886 -9.03449,4.50526 -3.24198,0.11894 -6.23981,-1.15615 -8.9935,-3.82526 -2.76138,-2.67658 -4.12934,-5.63318 -4.10386,-8.86983 0.0178,-3.24409 1.42104,-6.30469 4.20977,-9.18181 0.93457,-0.96415 1.93973,-1.78509 3.0155,-2.46282 1.07577,-0.67766 2.22203,-1.21972 3.43878,-1.62616 l 3.57516,3.46535 c -1.36307,0.27958 -2.5645,0.69335 -3.60431,1.24132 -1.03981,0.54802 -1.98962,1.26553 -2.84942,2.15255 -1.54015,1.58898 -2.24226,3.332 -2.10632,5.22906 0.13594,1.89709 1.09867,3.71291 2.88817,5.44744 1.7818,1.72708 3.62289,2.62897 5.52329,2.70568 1.90039,0.0767 3.62067,-0.67939 5.16083,-2.26837 0.85979,-0.88702 1.54734,-1.85874 2.06265,-2.91515 0.51529,-1.05638 0.89139,-2.27013 1.12831,-3.64127 l 3.57516,3.46536 m -37.45429,4.66511 4.66299,-4.09161 15.86697,18.08271 -4.66299,4.09162 -15.86697,-18.08272 m -18.59189,14.38303 17.74151,-13.29778 2.81225,3.75202 -6.3823,4.78372 11.61623,15.49803 -4.96401,3.72067 -11.61623,-15.49803 -6.3952,4.79339 -2.81225,-3.75202 m 7.47406,18.35851 -8.30821,5.00674 0.95108,4.54397 -5.34099,3.21862 -4.78508,-25.20413 6.33467,-3.81743 20.049,16.00571 -5.34099,3.21862 -3.55948,-2.9721 m -9.28708,0.38544 5.64462,-3.40159 -7.75561,-6.50117 2.11099,9.90276 m -8.03969,-20.55256 3.90569,-2.35367 -1.73765,6.01377 -2.705,1.6301 0.53696,-5.2902 m -32.43432,23.43455 7.2162,-3.20399 10.23161,9.54365 -0.18784,-14.00307 7.20147,-3.19745 9.76235,21.98732 -5.36061,2.3801 -7.14031,-16.08181 0.19763,14.10451 -3.59338,1.59545 -10.32975,-9.60585 7.14031,16.08181 -5.37533,2.38664 -9.76235,-21.98731 m -9.91993,14.00355 c 1.24648,-0.36842 2.06906,-0.86359 2.46773,-1.48551 0.40896,-0.62494 0.45662,-1.46795 0.14301,-2.52903 -0.31059,-1.05074 -0.80586,-1.72207 -1.48582,-2.01398 -0.66966,-0.29491 -1.62774,-0.25816 -2.87423,0.11025 l -2.50329,0.73991 1.74931,5.91828 2.50329,-0.73992 m -1.28837,4.85026 2.58057,8.73061 -5.94918,1.75844 -6.81909,-23.07045 9.08601,-2.68562 c 3.03897,-0.89822 5.41484,-1.04599 7.12761,-0.44331 1.72306,0.59968 2.9104,2.00179 3.56203,4.2063 0.45063,1.52466 0.44973,2.88592 -0.003,4.08379 -0.44216,1.19486 -1.33644,2.2433 -2.68283,3.14532 0.86862,-0.0551 1.71972,0.1526 2.55331,0.6231 0.84082,0.45719 1.78728,1.25279 2.83939,2.38681 l 5.16612,5.59724 -6.33548,1.87262 -4.50684,-4.90158 c -0.90763,-0.9863 -1.71745,-1.60386 -2.42948,-1.85267 -0.70174,-0.25184 -1.53678,-0.23466 -2.50512,0.0516 l -1.68431,0.49785 m -23.44984,-5.94316 c -1.86406,0.31594 -3.19307,1.24938 -3.98706,2.80033 -0.79399,1.55098 -0.97918,3.57622 -0.55555,6.07571 0.42182,2.48894 1.26308,4.33476 2.52378,5.53749 1.26068,1.20274 2.82305,1.64615 4.6871,1.33022 1.87462,-0.31771 3.20893,-1.25205 4.00294,-2.80302 0.79397,-1.55096 0.98005,-3.5709 0.55825,-6.05983 -0.42364,-2.4995 -1.2658,-4.35062 -2.52647,-5.55337 -1.26071,-1.20272 -2.82837,-1.64523 -4.70299,-1.32753 m -0.75121,-4.4324 c 3.8128,-0.64618 6.98439,-0.0615 9.51477,1.75409 2.53034,1.81562 4.12132,4.64571 4.77293,8.49028 0.64977,3.83401 0.0793,7.02499 -1.71155,9.57294 -1.79085,2.54796 -4.59266,4.14504 -8.40546,4.79124 -3.80223,0.6444 -6.97382,0.0597 -9.51477,-1.7541 -2.53037,-1.81559 -4.12045,-4.64038 -4.77024,-8.47439 -0.65159,-3.84457 -0.082,-7.04084 1.70886,-9.58882 1.80141,-2.54973 4.60323,-4.14681 8.40546,-4.79124 m -30.61168,3.40374 16.71572,-0.93238 0.26114,4.68169 -10.52173,0.58689 0.24947,4.47254 9.89429,-0.5519 0.26114,4.68169 -9.89429,0.55189 0.56804,10.18388 -6.19398,0.34549 -1.3398,-24.01979 m -24.98889,-1.02982 6.91849,0.37627 7.84054,16.95081 0.89606,-16.47565 5.87267,0.31939 -1.30646,24.02163 -6.91849,-0.37627 -7.84054,-16.95081 -0.89606,16.47565 -5.87267,-0.31939 1.30646,-24.02163 m -10.07654,-1.61104 6.14055,0.88231 -3.42152,23.81257 -6.14055,-0.88231 3.42152,-23.81257 m -24.13909,15.03475 -9.32623,-2.66746 -2.67697,3.79289 -5.99543,-1.71479 15.18259,-20.67931 7.11085,2.03382 1.95164,25.58 -5.99543,-1.7148 -0.25102,-4.63035 m -6.6116,-6.53339 6.33625,1.81228 -0.52837,-10.10621 -5.80788,8.29393 m -18.96339,-11.66951 c 1.20088,0.49734 2.15185,0.62956 2.85292,0.39667 0.71095,-0.22877 1.27811,-0.85428 1.70148,-1.87654 0.41922,-1.01232 0.45625,-1.84574 0.11111,-2.50028 -0.33526,-0.65041 -1.10333,-1.22428 -2.3042,-1.72163 l -2.41172,-0.99878 -2.3613,5.70178 2.41171,0.99878 m -4.05168,2.9612 -3.48338,8.41124 -5.73155,-2.37363 9.20476,-22.22651 8.75364,3.62518 c 2.92778,1.21252 4.86808,2.5916 5.82089,4.13723 0.96268,1.54977 1.00424,3.3866 0.12469,5.51049 -0.60833,1.46887 -1.46501,2.52676 -2.57004,3.17367 -1.09515,0.65104 -2.44977,0.90392 -4.06387,0.75867 0.71005,0.50335 1.24123,1.20003 1.59353,2.09005 0.3663,0.8842 0.60194,2.09797 0.70694,3.64132 l 0.49733,7.6007 -6.10373,-2.52777 -0.42214,-6.64521 c -0.0855,-1.33763 -0.3269,-2.32705 -0.72407,-2.96825 -0.38729,-0.63708 -1.04739,-1.1488 -1.9803,-1.53516 l -1.6227,-0.67202 m -17.61429,-25.67447 14.69441,8.02239 -2.24689,4.11557 -9.24942,-5.04971 -2.14651,3.93171 8.69785,4.74858 -2.24689,4.11557 -8.69785,-4.74858 -2.64067,4.83685 9.56056,5.21958 -2.24689,4.11556 -15.00555,-8.19226 11.52785,-21.11526 m -17.75024,0.98924 c 1.06809,0.74071 1.96939,1.0716 2.70389,0.99268 0.7433,-0.0728 1.43021,-0.56379 2.06075,-1.47301 0.62437,-0.90038 0.83731,-1.707 0.63883,-2.41984 -0.1897,-0.70672 -0.81859,-1.43043 -1.88668,-2.17113 l -2.14504,-1.48753 -3.5168,5.07131 2.14505,1.48752 m -4.58752,2.03459 -5.18796,7.48118 -5.09779,-3.53516 13.70907,-19.76884 7.78572,5.39915 c 2.60404,1.80585 4.20773,3.56505 4.81107,5.27759 0.61212,1.71868 0.2632,3.52254 -1.04677,5.41158 -0.90601,1.30645 -1.96755,2.1586 -3.18464,2.55645 -1.2083,0.40397 -2.58575,0.36382 -4.13233,-0.12044 0.58715,0.64249 0.9585,1.43598 1.11404,2.38046 0.17045,0.94177 0.14332,2.17791 -0.0814,3.70842 l -1.12589,7.53327 -5.42882,-3.76471 0.99674,-6.58358 c 0.20009,-1.32535 0.17405,-2.34344 -0.0781,-3.05429 -0.24336,-0.70472 -0.77992,-1.34479 -1.60968,-1.92021 l -1.44327,-1.00087 m -14.17719,-16.79825 c 0.97822,0.85588 1.83669,1.28583 2.57541,1.28984 0.74677,0.0111 1.48445,-0.39973 2.21303,-1.23244 0.72147,-0.82463 1.02359,-1.60225 0.90636,-2.33287 -0.10919,-0.72354 -0.65289,-1.51325 -1.63111,-2.36914 l -1.96456,-1.71885 -4.06369,4.64461 1.96456,1.71885 m -4.78687,1.50691 -5.99474,6.85171 -4.66887,-4.08491 15.84098,-18.1055 7.13063,6.23878 c 2.38493,2.08668 3.78107,4.01473 4.18842,5.78416 0.41538,1.77651 -0.13377,3.52982 -1.64746,5.25993 -1.0469,1.19652 -2.19737,1.92415 -3.45141,2.18291 -1.24601,0.26582 -2.61024,0.0713 -4.09271,-0.58342 0.51134,0.70432 0.79129,1.53447 0.83986,2.49044 0.0637,0.95495 -0.102,2.18024 -0.49703,3.67586 l -1.96419,7.35934 -4.97204,-4.35017 1.72928,-6.43014 c 0.34755,-1.29452 0.43593,-2.3091 0.26514,-3.04375 -0.16275,-0.72759 -0.62409,-1.42383 -1.38402,-2.08873 l -1.32184,-1.15651 m -15.04771,-8.03121 -6.53689,-7.16679 -4.26972,1.82258 -4.20229,-4.60723 23.77893,-9.62848 4.98411,5.46438 -11.76929,22.79537 -4.20229,-4.60722 2.21744,-4.07261 m -2.19679,-9.03175 4.44118,4.86913 4.85639,-8.87864 -9.29757,4.00951 m -13.09368,-3.57729 c -1.14789,-0.57276 -2.20698,-1.26994 -3.17728,-2.09154 -0.97032,-0.82164 -1.85066,-1.7752 -2.64104,-2.8607 -2.35852,-3.23917 -3.32385,-6.46291 -2.89599,-9.67123 0.43653,-3.21465 2.2049,-5.95065 5.30512,-8.208 3.10888,-2.26366 6.25569,-3.10653 9.44043,-2.52862 3.19338,0.57161 5.96934,2.47699 8.32788,5.71614 0.79035,1.08551 1.42755,2.21612 1.91158,3.39184 0.48397,1.17571 0.82228,2.39771 1.01494,3.66599 l -4.02507,2.93076 c -0.0427,-1.39079 -0.24515,-2.64525 -0.60746,-3.76337 -0.36237,-1.11813 -0.90712,-2.17653 -1.63425,-3.17519 -1.30258,-1.78892 -2.90007,-2.77842 -4.79247,-2.96849 -1.89244,-0.19007 -3.84601,0.44837 -5.86069,1.91533 -2.00604,1.46063 -3.20913,3.12063 -3.60929,4.98001 -0.40018,1.85936 0.051,3.6835 1.35358,5.47243 0.72714,0.99865 1.56715,1.84207 2.52002,2.53024 0.95285,0.68814 2.08453,1.26602 3.39505,1.73365 l -4.02506,2.93075 m 313.96893,-282.14204 8.06791,8.33697 -8.96225,8.673 -8.06791,-8.33697 8.96225,-8.673 m -22.07609,-14.16802 -16.0653,-10.87573 -7.44917,5.54248 -10.32769,-6.99154 41.73017,-29.85252 12.24912,8.29229 -12.21485,49.83349 -10.3277,-6.99153 2.40542,-8.95694 m -8.49912,-16.53356 10.9148,7.38898 5.28714,-19.53726 -16.20194,12.14828 m -38.72601,-13.2961 10.7431,4.37973 -4.70821,11.54883 -10.7431,-4.37973 4.70821,-11.54883 m -9.77253,-39.35084 -1.93416,9.99823 c -2.3701,-1.662 -4.73195,-3.02703 -7.08557,-4.0951 -2.3537,-1.06799 -4.62738,-1.8142 -6.82105,-2.2386 -2.91091,-0.56308 -5.13995,-0.57852 -6.68715,-0.0463 -1.54724,0.53227 -2.48407,1.64212 -2.81048,3.32955 -0.24486,1.26563 0.0274,2.34678 0.8168,3.24347 0.81452,0.87973 2.40678,1.81141 4.7768,2.79504 l 4.98697,2.04792 c 5.04817,2.07074 8.47156,4.39607 10.27019,6.97603 1.79854,2.57998 2.31427,5.85273 1.54718,9.81827 -1.00793,5.21005 -3.3091,8.7913 -6.90352,10.74375 -3.56932,1.93544 -8.5285,2.28905 -14.87756,1.06082 -2.99527,-0.57944 -5.94597,-1.44567 -8.85213,-2.59869 -2.90618,-1.15304 -5.7593,-2.58028 -8.55937,-4.28174 l 1.98925,-10.28299 c 2.70621,2.18662 5.38246,3.96259 8.02874,5.32793 2.67143,1.34834 5.31494,2.27549 7.93053,2.78147 2.65773,0.51415 4.77892,0.46496 6.36358,-0.14757 1.5846,-0.61252 2.53606,-1.74142 2.85437,-3.38671 0.2856,-1.47652 0.0208,-2.70941 -0.79439,-3.69867 -0.79418,-0.98515 -2.56438,-2.07161 -5.31063,-3.25937 l -4.51237,-1.95611 c -4.52905,-1.9265 -7.67619,-4.20934 -9.44143,-6.84853 -1.74417,-2.63506 -2.25308,-5.82991 -1.52674,-9.58455 0.90994,-4.70377 3.12846,-8.02747 6.65557,-9.971118 3.52708,-1.943561 8.13822,-2.364494 13.83344,-1.262803 2.59444,0.501946 5.22398,1.218516 7.88862,2.149712 2.66864,0.910189 5.39347,2.039079 8.17451,3.386679 m -66.32562,26.90801 11.60152,-0.0317 0.0341,12.47163 -11.60152,0.0317 -0.0341,-12.47164 m -76.8242,-22.10701 15.31688,-3.84047 16.89036,22.31109 4.42825,-27.65639 15.28562,-3.832629 11.70167,46.669609 -11.37826,2.85292 -8.55875,-34.13477 -4.44374,27.85962 -7.62719,1.91239 -17.06241,-22.46729 8.55875,34.13478 -11.40952,2.86075 -11.70166,-46.66961 m -15.6003,48.2077 10.23349,-5.46551 5.87543,11.00101 -10.23349,5.46551 -5.87543,-11.00101 m -68.40599,6.94411 9.4803,-8.00394 18.60657,22.03863 c 2.56403,3.037 4.89291,4.79635 6.98666,5.27804 2.09628,0.45145 4.26893,-0.27222 6.51795,-2.17101 2.26541,-1.9126 3.34314,-3.93314 3.23322,-6.06162 -0.10741,-2.1587 -1.44312,-4.75655 -4.00714,-7.79356 l -18.60656,-22.03863 9.4803,-8.00394 18.60657,22.03863 c 4.39348,5.20394 6.35927,10.17998 5.89738,14.92813 -0.46194,4.7482 -3.36873,9.38141 -8.72035,13.89963 -5.33525,4.5044 -10.38207,6.58618 -15.14047,6.24536 -4.7584,-0.34081 -9.33436,-3.11317 -13.72786,-8.31709 l -18.60657,-22.03863 m 296.66098,402.76248 -7.80212,4.10979 0.62569,4.17377 -5.01565,2.64201 -3.02549,-23.12505 5.94879,-3.13355 17.35962,15.57451 -5.01565,2.64201 -3.07519,-2.88349 m -8.44897,-0.1356 5.30077,-2.7922 -6.69908,-6.30575 1.39831,9.09795 m -20.6112,-5.53825 5.14552,-2.30852 8.95225,19.95393 -5.14552,2.30852 -8.95225,-19.95393 m -22.75763,8.86904 5.30856,-1.989 11.09578,13.08111 -0.24547,-17.14649 5.30856,-1.989 0.0877,23.32196 -6.2962,2.35905 -15.25895,-17.63763 m -6.96521,1.88351 5.39574,-1.64063 6.36223,20.92424 -5.39574,1.64063 -6.36223,-20.92424 m -17.31495,4.46307 5.47878,-1.33741 4.17548,17.10517 9.61988,-2.34828 1.01087,4.1411 -15.09865,3.68568 -5.18636,-21.24626 m -12.91475,6.07523 c -1.69746,0.26975 -2.91433,1.10584 -3.65062,2.50828 -0.7363,1.40247 -0.92361,3.24177 -0.56193,5.51788 0.36015,2.2665 1.1076,3.95231 2.24237,5.05745 1.13475,1.10515 2.55085,1.52285 4.24832,1.25312 1.70708,-0.27125 2.92878,-1.10811 3.66509,-2.51058 0.73628,-1.40245 0.92435,-3.23692 0.56422,-5.50341 -0.3617,-2.27612 -1.10991,-3.96675 -2.24466,-5.07192 -1.13477,-1.10512 -2.5557,-1.52206 -4.26279,-1.25082 m -0.64137,-4.03627 c 3.47206,-0.5517 6.34969,0.01 8.63291,1.68365 2.28319,1.67417 3.70295,4.26175 4.25928,7.76273 0.55476,3.49136 0.006,6.38675 -1.64552,8.68617 -1.65182,2.29944 -4.21375,3.72501 -7.68579,4.27672 -3.46243,0.55019 -6.34007,-0.011 -8.63291,-1.68365 -2.28321,-1.67415 -3.7022,-4.2569 -4.25699,-7.74826 -0.55631,-3.50098 -0.009,-6.40119 1.64323,-8.70064 1.66144,-2.30094 4.22337,-3.72652 7.68579,-4.27672 m -21.35561,11.34756 c 0.88651,-0.0617 1.54515,-0.30335 1.9759,-0.72492 0.43074,-0.42155 0.61966,-1.01227 0.56676,-1.77216 -0.0522,-0.75012 -0.32086,-1.30409 -0.80585,-1.66191 -0.4857,-0.36753 -1.1718,-0.52044 -2.05832,-0.45873 l -3.11258,0.21671 0.32151,4.61773 3.11258,-0.21672 m 0.85435,9.52911 c 1.13006,-0.0787 1.961,-0.37637 2.49282,-0.89308 0.54153,-0.51737 0.77872,-1.25829 0.71159,-2.22276 -0.0658,-0.94497 -0.3975,-1.63159 -0.99509,-2.05988 -0.59828,-0.43801 -1.46733,-0.61734 -2.60714,-0.53799 l -3.30255,0.22994 0.39782,5.7137 3.30255,-0.22993 m 4.68512,-8.21146 c 1.23241,0.26662 2.21275,0.84935 2.94102,1.7482 0.72823,0.89886 1.14018,2.0351 1.23584,3.40872 0.14649,2.10429 -0.45548,3.72227 -1.8059,4.85395 -1.35046,1.13169 -3.47724,1.79859 -6.38035,2.00072 l -9.33775,0.65013 -1.51901,-21.8173 8.44635,-0.58807 c 3.02976,-0.21092 5.25359,0.0943 6.67151,0.91579 1.42763,0.82081 2.21165,2.23951 2.35208,4.25609 0.0739,1.0619 -0.11143,1.98521 -0.55603,2.76992 -0.44531,0.775 -1.1279,1.37562 -2.04776,1.80185 m -37.04771,1.68201 9.19462,0.29059 -0.13464,4.26056 -9.19463,-0.29058 0.13465,-4.26057 m -29.40145,-14.21751 18.225,2.41105 -0.44763,3.3836 -13.49365,12.53289 11.96606,1.58303 -0.55906,4.22588 -18.893,-2.49943 0.44763,-3.3836 13.49364,-12.53289 -11.29804,-1.49466 0.55905,-4.22587 m -10.72471,16.07211 -8.61741,-1.87178 -2.20562,3.59821 -5.53977,-1.20329 12.55814,-19.65235 6.57042,1.42715 3.27387,23.0912 -5.53977,-1.20329 -0.49986,-4.18585 m -6.38194,-5.53845 5.85469,1.27169 -1.07329,-9.13719 -4.7814,7.8655 m -19.58927,-19.73049 8.96432,2.69391 c 2.66543,0.80103 4.53047,2.00901 5.59512,3.62396 1.07677,1.60843 1.28633,3.50688 0.62869,5.69534 -0.6605,2.19783 -1.88467,3.67562 -3.67251,4.43336 -1.77572,0.7512 -3.9963,0.7263 -6.66173,-0.0747 l -3.56328,-1.07082 -2.1838,7.26685 -5.40103,-1.62309 6.29422,-20.9448 m 4.22483,5.53709 -1.758,5.84996 2.9881,0.89797 c 1.04746,0.31479 1.93233,0.30538 2.65462,-0.0282 0.72506,-0.34294 1.22813,-0.98203 1.5092,-1.91728 0.28104,-0.93524 0.2122,-1.7411 -0.20651,-2.41758 -0.41875,-0.67647 -1.15185,-1.17209 -2.19931,-1.48689 l -2.9881,-0.89797 m -28.01498,4.63231 -8.09325,-3.50182 -2.85939,3.10414 -5.20281,-2.25116 16.11924,-16.85503 6.17077,2.66999 -1.25023,23.28859 -5.20281,-2.25117 0.31848,-4.20354 m -5.19133,-6.66736 5.49857,2.37914 0.71272,-9.17237 -6.21129,6.79323 m -15.31345,-23.09016 4.98668,2.63414 -8.22399,15.56879 8.75583,4.62514 -1.991,3.76915 -13.7425,-7.25927 10.21498,-19.33795" style="font-size:22.60000038px;font-style:normal;font-variant:normal;font-weight:bold;font-stretch:normal;text-align:start;line-height:125%;writing-mode:lr-tb;text-anchor:start;fill:#0e2272;fill-opacity:1;stroke:none;font-family:Sans;-inkscape-font-specification:Sans Bold" id="path3148" inkscape:connector-curvature="0"/>
      </g>
    </g>
  </g>
</svg>